<mxfile host="app.diagrams.net" modified="2023-05-17T01:44:24.004Z" agent="Mozilla/5.0 (Macintosh; Intel Mac OS X 10_15_7) AppleWebKit/537.36 (KHTML, like Gecko) Chrome/111.0.0.0 Safari/537.36" version="21.2.9" etag="3EBe4cwA1sa75kBMLns_" type="github">
  <diagram name="第 1 页" id="-xb8jaA_QbG4gVyTH7ck">
    <mxGraphModel>
      <root>
        <mxCell id="0" />
        <mxCell id="1" parent="0" />
      </root>
    </mxGraphModel>
  </diagram>
</mxfile>
